<?xml version="1.0" standalone="no"?>
<!DOCTYPE svg PUBLIC "-//W3C//DTD SVG 20010904//EN"
 "http://www.w3.org/TR/2001/REC-SVG-20010904/DTD/svg10.dtd">
<svg version="1.0" xmlns="http://www.w3.org/2000/svg"
 width="526.000000pt" height="526.000000pt" viewBox="0 0 526.000000 526.000000"
 preserveAspectRatio="xMidYMid meet">

<g transform="translate(0.000000,526.000000) scale(0.100000,-0.100000)"
fill="#000000" stroke="none">
<path d="M0 2630 l0 -2630 2630 0 2630 0 0 2630 0 2630 -2630 0 -2630 0 0
-2630z m2652 2408 c23 -18 2189 -4744 2195 -4790 5 -35 4 -37 -33 -48 -42 -12
-756 -11 -769 1 -3 4 -26 60 -51 125 -150 398 -345 637 -640 782 -143 71 -273
105 -519 138 -184 24 -320 21 -500 -11 -218 -38 -225 -39 -225 -26 0 13 225
484 248 519 34 51 245 124 409 141 153 16 274 1 465 -56 94 -28 118 -26 118 9
-1 29 -711 1580 -725 1582 -8 1 -179 -366 -625 -1344 -48 -107 -158 -364 -243
-570 -336 -812 -528 -1265 -542 -1280 -13 -13 -69 -15 -378 -18 -403 -4 -437
0 -437 47 0 33 2174 4781 2197 4799 9 6 22 12 28 12 6 0 19 -6 27 -12z"/>
</g>
</svg>
